<?xml version="1.0" encoding="iso-8859-1"?>
<!-- Generator: Adobe Illustrator 19.0.0, SVG Export Plug-In . SVG Version: 6.00 Build 0)  -->
<svg version="1.1" id="Layer_1" xmlns="http://www.w3.org/2000/svg" xmlns:xlink="http://www.w3.org/1999/xlink" x="0px" y="0px"
	 viewBox="0 0 512 512" style="enable-background:new 0 0 512 512;" xml:space="preserve">
<g>
	<g>
		<path d="M389.565,61.217h-83.478c-13.798,0-19.65,6.39-40.368,21.929c17.663,7.672,40.356,30.072,52.599,44.853h71.247
			c18.413,0,33.391-14.978,33.391-33.391S407.978,61.217,389.565,61.217z"/>
	</g>
</g>
<g>
	<g>
		<path d="M395.61,236.317c-2.315-12.038-5.446-24.054-9.315-35.706c-2.915-8.757-12.338-13.491-21.11-10.594
			c-8.75,2.902-13.489,12.354-10.587,21.103c3.413,10.288,6.185,20.886,8.229,31.511c1.533,7.989,8.533,13.544,16.37,13.544
			c1.054,0,2.109-0.104,3.174-0.304C391.425,254.127,397.36,245.37,395.61,236.317z"/>
	</g>
</g>
<g>
	<g>
		<path d="M161.391,5.565c-27.619,0-50.087,22.468-50.087,50.087c0,27.619,22.468,50.087,50.087,50.087
			c27.619,0,50.087-22.468,50.087-50.087C211.478,28.033,189.01,5.565,161.391,5.565z"/>
	</g>
</g>
<g>
	<g>
		<path d="M491.283,260.24c-12.914,3.201-25.468,8.065-37.305,14.462c-35.962,19.413-78.69,19.734-114.981,1.254
			c-4.161-61.26-36.087-128.688-83.227-160.451c-9.901-6.082-25.193-5.974-36.511,2.479l-57.868,43.408H89.044
			c-18.413,0-33.391,14.978-33.391,33.391c0,18.413,14.978,33.391,33.391,33.391h83.478c7.174,0,14.294-2.375,20.044-6.685
			l45.739-34.31c10.206,14.546,21.799,27.228,30.502,69.022c-28.059-1.302-56.362,4.678-81.958,18.499
			c-36.847,19.891-80.848,19.891-117.695,0c-15.685-8.467-32.435-14.19-49.772-17.011c-4.881-0.794-9.761,0.587-13.5,3.761
			C2.153,264.625,0,269.272,0,274.168v215.571c0,9.223,7.479,16.696,16.696,16.696h478.609c9.217,0,16.696-7.473,16.696-16.696
			V276.445C512,265.665,501.944,257.661,491.283,260.24z M228.211,473.042c18.581-0.023,33.355-13.6,33.355-39.113
			c0-13.265,1.052-19.35,7.456-74.527c26.24,47.305,38.121,72.865,69.12,103.864c6.278,6.283,14.617,9.747,23.486,9.777H228.211z
			 M478.609,473.043H361.85c8.87-0.03,17.209-3.494,23.497-9.788c12.782-12.777,13.142-33.141,0.826-46.354
			c-18.432-19.752-33.565-46.471-43.902-71.06c-15.577-6.879-42.574-23.211-80.673-23.211c-17.758,0-38.958,4.64-49.457,9.174
			c-6.937,16.412-17.359,57.203-17.359,107.848c0,18.399,14.955,33.367,33.337,33.39H33.391V295.441
			c6.815,2.283,13.468,5.169,19.891,8.642c46.782,25.26,102.653,25.26,149.435,0c36.847-19.891,80.848-19.891,117.695,0
			c46.782,25.26,102.653,25.26,149.435,0c2.869-1.549,5.793-2.99,8.761-4.31V473.043z"/>
	</g>
</g>
<g>
</g>
<g>
</g>
<g>
</g>
<g>
</g>
<g>
</g>
<g>
</g>
<g>
</g>
<g>
</g>
<g>
</g>
<g>
</g>
<g>
</g>
<g>
</g>
<g>
</g>
<g>
</g>
<g>
</g>
</svg>
