<?xml version="1.0" encoding="iso-8859-1"?>
<!-- Generator: Adobe Illustrator 19.0.0, SVG Export Plug-In . SVG Version: 6.00 Build 0)  -->
<svg version="1.1" id="Capa_1" xmlns="http://www.w3.org/2000/svg" xmlns:xlink="http://www.w3.org/1999/xlink" x="0px" y="0px"
	 viewBox="0 0 512 512" style="enable-background:new 0 0 512 512;" xml:space="preserve">
<g>
	<g>
		<path d="M502.154,359.385h-15.37c10.113-17.857,15.564-38.265,15.564-59.077c0-65.15-52.051-118.154-116.031-118.154
			c-38.831,0-74.655,19.628-96.117,51.946c-11.332-8.166-24.825-12.562-39.026-12.562H49.231V60.308
			c0-19.68,16.012-35.692,35.692-35.692h7.385c17.581,0,32.224,12.781,35.151,29.539h-9.305c-5.437,0-9.846,4.409-9.846,9.846
			v19.706c-12.272,9.232-19.692,23.839-19.692,39.371v19.692c0,5.437,4.409,9.846,9.846,9.846h78.769
			c5.437,0,9.846-4.409,9.846-9.846v-19.692c0-15.532-7.42-30.139-19.692-39.371V64c0-5.437-4.409-9.846-9.846-9.846h-10.196
			c-3.072-27.653-26.576-49.231-55.035-49.231h-7.385c-30.54,0-55.385,24.845-55.385,55.385v161.231H9.846
			c-5.437,0-9.846,4.409-9.846,9.846v196.923c0,5.437,4.409,9.846,9.846,9.846h154.257v19.692c0,27.146,21.738,49.231,48.459,49.231
			c26.72,0,48.458-22.085,48.458-49.231v-19.692h241.134c5.437,0,9.846-4.409,9.846-9.846v-59.077
			C512,363.794,507.591,359.385,502.154,359.385z M128,73.846h19.692v15.128c0,3.515,1.873,6.761,4.914,8.523
			c9.116,5.275,14.778,15.076,14.778,25.58v9.846h-59.077v-9.846c0-10.504,5.663-20.306,14.778-25.58
			c3.041-1.76,4.914-5.008,4.914-8.522V73.846z M164.103,418.462H19.692v-39.385h144.411V418.462z M251.173,300.308
			c-5.437,0-9.846,4.409-9.846,9.846v147.692c0,16.288-12.904,29.539-28.767,29.539c-15.862,0-28.766-13.251-28.766-29.539V310.154
			c0-5.437-4.409-9.846-9.846-9.846c-5.437,0-9.846,4.409-9.846,9.846v49.231H19.692v-19.692h38.42c5.437,0,9.846-4.409,9.846-9.846
			c0-5.437-4.409-9.846-9.846-9.846h-38.42v-78.769h231.481c10.808,0,21.04,3.632,29.427,10.322
			c-5.362,12.017-8.671,24.777-9.842,38.043c-0.479,5.416,3.524,10.196,8.941,10.674c0.295,0.026,0.588,0.039,0.878,0.039
			c5.046,0,9.344-3.859,9.796-8.981c1.169-13.224,4.874-25.841,11.006-37.514c16.838-32.055,49.381-51.968,84.938-51.968
			c53.121,0,96.339,44.169,96.339,98.462c0,21.312-6.812,42.112-19.263,59.077H261.02v-49.231
			C261.02,304.717,256.61,300.308,251.173,300.308z M492.308,418.462H261.02v-39.385h231.288V418.462z"/>
	</g>
</g>
<g>
	<g>
		<path d="M94.031,322.885C92.199,321.053,89.659,320,87.07,320s-5.13,1.053-6.961,2.885c-1.83,1.831-2.885,4.372-2.885,6.961
			s1.054,5.13,2.885,6.96c1.831,1.831,4.372,2.886,6.961,2.886s5.13-1.054,6.961-2.886c1.83-1.83,2.885-4.371,2.885-6.96
			S95.862,324.716,94.031,322.885z"/>
	</g>
</g>
<g>
	<g>
		<path d="M137.846,162.462c-5.437,0-9.846,4.409-9.846,9.846V192c0,5.437,4.409,9.846,9.846,9.846c5.437,0,9.846-4.409,9.846-9.846
			v-19.692C147.692,166.871,143.283,162.462,137.846,162.462z"/>
	</g>
</g>
<g>
	<g>
		<path d="M184.193,175.191l-9.846-9.845c-3.846-3.844-10.078-3.844-13.925,0c-3.845,3.845-3.845,10.08,0,13.925l9.846,9.846
			c1.924,1.921,4.443,2.883,6.963,2.883s5.039-0.962,6.962-2.884C188.038,185.271,188.038,179.037,184.193,175.191z"/>
	</g>
</g>
<g>
	<g>
		<path d="M115.27,165.344c-3.846-3.844-10.078-3.844-13.924,0.001l-9.846,9.846c-3.845,3.845-3.845,10.079,0,13.925
			c1.923,1.921,4.442,2.883,6.962,2.883s5.039-0.962,6.962-2.884l9.846-9.846C119.115,175.425,119.115,169.19,115.27,165.344z"/>
	</g>
</g>
<g>
</g>
<g>
</g>
<g>
</g>
<g>
</g>
<g>
</g>
<g>
</g>
<g>
</g>
<g>
</g>
<g>
</g>
<g>
</g>
<g>
</g>
<g>
</g>
<g>
</g>
<g>
</g>
<g>
</g>
</svg>
