<?xml version="1.0" encoding="iso-8859-1"?>
<!-- Generator: Adobe Illustrator 19.0.0, SVG Export Plug-In . SVG Version: 6.00 Build 0)  -->
<svg version="1.1" id="Layer_1" xmlns="http://www.w3.org/2000/svg" xmlns:xlink="http://www.w3.org/1999/xlink" x="0px" y="0px"
	 viewBox="0 0 512 512" style="enable-background:new 0 0 512 512;" xml:space="preserve">
<g>
	<g>
		<g>
			<path d="M373.333,298.432c58.813,0,106.667-47.854,106.667-106.667c0-54.979-88.083-174.302-98.125-187.719
				c-4.042-5.396-13.042-5.396-17.083,0c-10.042,13.417-98.125,132.74-98.125,187.719
				C266.667,250.578,314.521,298.432,373.333,298.432z M373.333,28.505c29.917,41.708,85.333,126.563,85.333,163.26
				c0,47.052-38.271,85.333-85.333,85.333c-47.063,0-85.333-38.281-85.333-85.333C288,155.089,343.417,70.224,373.333,28.505z"/>
			<path d="M373.333,255.766c5.896,0,10.667-4.771,10.667-10.667c0-5.896-4.771-10.667-10.667-10.667
				c-23.521,0-42.667-19.135-42.667-42.667c0-5.896-4.771-10.667-10.667-10.667s-10.667,4.771-10.667,10.667
				C309.333,227.057,338.042,255.766,373.333,255.766z"/>
			<path d="M448,373.333c-20.827,0-64,11.598-85.885,17.885c-2.904-30.609-42.125-41.444-82.656-49.677
				c-18.5-3.75-32.271-10.385-45.583-16.813c-16.417-7.917-31.917-15.396-52.542-15.396c-23.618,0-45.142,4.831-57.288,8.173
				c-3.211-11.172-12.32-20.177-24.421-22.59L12.75,277.542c-3.125-0.604-6.375,0.198-8.854,2.208C1.438,281.781,0,284.802,0,288
				v170.667c0,5.896,4.771,10.667,10.667,10.667H77.5c13.172,0,24.397-8.379,29.223-20.142C130.625,460.586,241.081,512,288,512
				c41.375,0,126.563-41.875,182.917-69.583c14.688-7.219,26.833-13.198,34.708-16.646C509.5,424.063,512,420.229,512,416
				C512,390.875,485.688,373.333,448,373.333z M103.917,327.802L88.063,438.844C87.313,444.063,82.771,448,77.5,448H21.333V301.01
				l74.125,14.823C101,316.948,104.729,322.198,103.917,327.802z M461.5,423.271c-51.271,25.208-137.083,67.396-173.5,67.396
				c-38.792,0-140.688-45.427-176.667-62.927c-0.04-0.02-0.085-0.013-0.125-0.031l12.551-87.904
				c7.772-2.431,31.518-9.138,57.574-9.138c15.75,0,27.896,5.865,43.292,13.281c13.813,6.667,29.479,14.219,50.583,18.51
				c46.354,9.396,66.125,19.031,66.125,32.208c0,2.604-0.792,4.208-2.813,5.719c-6.771,5.073-33.25,13.594-132.813-15.948
				c-5.708-1.688-11.583,1.563-13.271,7.198c-1.667,5.646,1.542,11.583,7.188,13.26c49.146,14.563,86.708,21.823,113.333,21.823
				c17.354,0,30.083-3.083,38.313-9.24c0.708-0.529,1.227-1.176,1.871-1.745c0.671-0.074,1.332,0.005,2.004-0.203
				C374,409.729,427.438,394.667,448,394.667c17.396,0,35.708,5.281,41.083,15.208C481.646,413.375,472.25,418,461.5,423.271z"/>
		</g>
	</g>
</g>
<g>
</g>
<g>
</g>
<g>
</g>
<g>
</g>
<g>
</g>
<g>
</g>
<g>
</g>
<g>
</g>
<g>
</g>
<g>
</g>
<g>
</g>
<g>
</g>
<g>
</g>
<g>
</g>
<g>
</g>
</svg>
