<?xml version="1.0" encoding="iso-8859-1"?>
<!-- Generator: Adobe Illustrator 19.0.0, SVG Export Plug-In . SVG Version: 6.00 Build 0)  -->
<svg version="1.1" id="Layer_1" xmlns="http://www.w3.org/2000/svg" xmlns:xlink="http://www.w3.org/1999/xlink" x="0px" y="0px"
	 viewBox="0 0 484.09 484.09" style="enable-background:new 0 0 484.09 484.09;" xml:space="preserve">
<g>
	<g>
		<g>
			<path d="M400.83,301.111l-78.58-144.152h1.794c5.522,0,10-4.478,10-10v-60c0-5.522-4.478-10-10-10h-31.686l29.444-62.709
				c1.454-3.098,1.224-6.724-0.61-9.612C319.357,1.75,316.172,0,312.75,0H171.338c-3.422,0-6.606,1.75-8.441,4.638
				c-1.834,2.889-2.064,6.515-0.61,9.612l29.444,62.709h-31.686c-5.522,0-10,4.478-10,10v60c0,5.522,4.478,10,10,10h1.794
				l-78.58,144.152c-14.526,26.647-18.698,57.575-11.747,87.084c6.989,29.673,24.645,55.341,49.713,72.276
				c22.871,15.452,49.605,23.619,77.313,23.619h87.014c27.707,0,54.441-8.167,77.312-23.619
				c25.069-16.936,42.725-42.604,49.714-72.276C419.528,358.687,415.356,327.76,400.83,301.111z M187.082,20h19.098l18.769,41.112
				c1.679,3.678,5.308,5.849,9.103,5.849c1.39,0,2.801-0.29,4.147-0.905c5.023-2.293,7.237-8.226,4.943-13.25L228.165,20h68.843
				l-26.744,56.959h-56.438L187.082,20z M170.044,96.959h144v40h-144V96.959z M351.667,443.899
				c-19.553,13.209-42.415,20.191-66.116,20.191h-87.014c-23.701,0-46.563-6.982-66.116-20.191
				c-43.422-29.336-57.008-86.606-31.601-133.215l83.798-153.725h114.854l83.798,153.725
				C408.677,357.293,395.091,414.563,351.667,443.899z"/>
			<path d="M285.587,251.454c-17.427,0-33.351,8.208-43.543,21.367c-10.192-13.159-26.116-21.367-43.543-21.367
				c-30.346,0-55.034,24.688-55.034,55.034c0,25.594,22.242,46.972,40.113,64.149c2.787,2.679,5.42,5.209,7.85,7.64
				c21.821,21.82,43.637,41.852,43.854,42.051c1.912,1.754,4.336,2.631,6.76,2.631c2.432,0,4.862-0.883,6.776-2.646
				c0.23-0.212,23.204-21.402,43.838-42.035c2.43-2.431,5.063-4.961,7.85-7.64c17.871-17.178,40.113-38.556,40.113-64.149
				C340.622,276.143,315.933,251.454,285.587,251.454z M286.649,356.219c-2.86,2.749-5.563,5.346-8.133,7.916
				c-13.572,13.572-28.19,27.407-36.481,35.171c-8.072-7.547-22.263-20.972-36.462-35.171c-2.57-2.57-5.272-5.167-8.133-7.916
				c-15.136-14.548-33.973-32.653-33.973-49.73c0-19.318,15.716-35.034,35.034-35.034c15.896,0,29.825,10.721,33.874,26.07
				c1.157,4.391,5.128,7.45,9.669,7.45s8.512-3.06,9.669-7.45c4.049-15.35,17.978-26.07,33.874-26.07
				c19.318,0,35.034,15.716,35.034,35.034C320.622,323.565,301.785,341.671,286.649,356.219z"/>
			<path d="M286.025,315.484l-6.438,6.345c-3.934,3.877-3.979,10.208-0.103,14.142c1.957,1.985,4.539,2.98,7.122,2.98
				c2.535,0,5.071-0.958,7.02-2.878l6.438-6.345c3.934-3.877,3.979-10.208,0.103-14.142
				C296.289,311.653,289.957,311.608,286.025,315.484z"/>
			<path d="M256.961,344.133l-21.005,20.704c-3.934,3.877-3.979,10.209-0.103,14.142c1.957,1.985,4.539,2.98,7.122,2.98
				c2.535,0,5.072-0.958,7.02-2.878L271,358.377c3.934-3.877,3.979-10.209,0.103-14.142
				C267.225,340.301,260.893,340.257,256.961,344.133z"/>
		</g>
	</g>
</g>
<g>
</g>
<g>
</g>
<g>
</g>
<g>
</g>
<g>
</g>
<g>
</g>
<g>
</g>
<g>
</g>
<g>
</g>
<g>
</g>
<g>
</g>
<g>
</g>
<g>
</g>
<g>
</g>
<g>
</g>
</svg>
